<svg xmlns="http://www.w3.org/2000/svg" xmlns:xlink="http://www.w3.org/1999/xlink" xmlns:fi="http://pattern.flaticon.com/" x="0" y="0" width="700" height="350" viewBox="0 0 700 350"><rect x="0px" y="0px" width="100%" height="100%" opacity="0" fill="#ffffff"/><defs><path d="M392.52,288.629l-78.32-89.6h37.84c4.418-0.011,7.991-3.601,7.981-8.019c-0.004-1.759-0.588-3.467-1.661-4.861    l-62.88-82.64h32c4.418-0.006,7.995-3.592,7.99-8.01c-0.002-1.94-0.71-3.813-1.99-5.27l-76.96-87.52    c-2.922-3.314-7.978-3.631-11.292-0.708c-0.251,0.221-0.487,0.458-0.708,0.708l-77.04,87.44c-2.96,3.28-2.701,8.339,0.578,11.299    c1.486,1.341,3.42,2.076,5.422,2.061h32.4l-19.36,25.28l-51.84-58.96c-2.922-3.314-7.978-3.631-11.292-0.708    c-0.251,0.221-0.487,0.458-0.708,0.708l-65.84,74.8c-2.916,3.319-2.589,8.374,0.73,11.29c1.457,1.28,3.33,1.987,5.27,1.99H88.2    l-52.64,68.88c-2.607,3.567-1.83,8.572,1.737,11.18c1.332,0.974,2.933,1.512,4.583,1.54h29.6l-65.04,74.8    c-2.872,3.357-2.479,8.407,0.879,11.28c1.428,1.222,3.242,1.902,5.121,1.92h88.48v56c0,8.571,6.949,15.52,15.52,15.52h24.4    c8.571,0.044,15.556-6.868,15.6-15.44c0-0.027,0-0.053,0-0.08v-56h66.4v56c0,8.571,6.949,15.52,15.52,15.52h24.4    c8.571,0,15.52-6.949,15.52-15.52v-81.6h108.24c4.418-0.006,7.995-3.592,7.99-8.01C394.507,291.959,393.8,290.086,392.52,288.629z     M140.44,383.029l-23.52,0.48l-0.48-56h24V383.029z M222.84,311.509H30.04l65.44-74.64c2.962-3.278,2.705-8.337-0.573-11.299    c-1.528-1.38-3.529-2.118-5.587-2.061h-31.2l52.64-68.88c2.695-3.501,2.042-8.524-1.459-11.219    c-1.394-1.073-3.102-1.657-4.861-1.661h-24l48-54.64l48,54.48l-33.76,44.64c-2.695,3.501-2.042,8.524,1.459,11.219    c1.394,1.073,3.102,1.657,4.861,1.661h37.92l-78.32,89.6c-2.916,3.319-2.589,8.374,0.73,11.29c1.457,1.28,3.33,1.987,5.27,1.99    h108.24V311.509z M262.28,382.869l-23.44,0.64l-0.48-81.6h24L262.28,382.869z M262.76,285.909H132.2l78.32-89.6    c2.916-3.319,2.589-8.374-0.73-11.29c-1.457-1.28-3.33-1.987-5.27-1.99h-39.28l63.2-82.72c2.651-3.534,1.935-8.549-1.599-11.2    c-1.363-1.022-3.017-1.583-4.721-1.6h-30.64l59.36-67.36l59.04,67.36H279c-4.418,0.011-7.991,3.601-7.981,8.019    c0.004,1.759,0.588,3.467,1.661,4.861l62.8,82.64h-38.96c-4.418,0.006-7.995,3.592-7.99,8.01c0.002,1.94,0.71,3.813,1.99,5.27    l78.32,89.6H262.76z" transform="matrix(0.15036500990390778 0 0 0.15036500990390778 110.99999823791 60)" id="L1_1"/><g transform="matrix(0.14311474561691284 0 0 0.14311474561691284 288 60.000000262051)" id="L1_2"><path d="M392.67,405.629l-67.76-157.6l-64-148.96c-1.732-4.065-6.431-5.956-10.495-4.225c-1.901,0.81-3.415,2.324-4.225,4.225    l-57.12,132.56l-22.4,52.08l-49.12-113.36c-1.732-4.065-6.431-5.956-10.495-4.225c-1.901,0.81-3.415,2.324-4.225,4.225    l-46.16,106.64l-56,128.56c-1.767,4.049,0.083,8.765,4.132,10.532c1.018,0.444,2.117,0.672,3.228,0.668h377.28    c4.418-0.004,7.997-3.588,7.993-8.007C393.303,407.673,393.087,406.614,392.67,405.629z M253.47,122.349l51.92,120.72h-18.24    l-32.96-36.4c-2.972-3.27-8.031-3.511-11.301-0.539c-0.513,0.466-0.963,0.997-1.339,1.579l-12.32,19.04h-20.64L253.47,122.349z     M110.19,193.389l41.04,94.88h-22.4c-2.72,0.005-5.251,1.391-6.72,3.68l-8,12.72l-20.64-29.12c-1.492-2.151-3.942-3.436-6.56-3.44    H76.27L110.19,193.389z M20.59,400.749l48.72-112.64h13.44l24.96,35.6c1.492,2.151,3.942,3.436,6.56,3.44    c2.663-0.058,5.122-1.438,6.56-3.68l12.32-19.04h24.96l41.68,96L20.59,400.749z M217.31,400.749l-41.92-96.8l26.32-61.2h32    c2.72-0.005,5.251-1.391,6.72-3.68l8.88-13.68l28.32,31.28c1.512,1.676,3.663,2.635,5.92,2.64h28.64l60.88,141.68L217.31,400.749z    "/><path d="M127.63,34.909c-7.547-19.441-29.426-29.082-48.866-21.534C64.289,18.994,54.73,32.902,54.67,48.429    c-0.079,1.386-0.079,2.774,0,4.16c-18.914,8.784-27.125,31.238-18.341,50.152c6.083,13.097,19.103,21.578,33.541,21.848l0.4,0.32    h56c24.853,0.376,45.304-19.467,45.68-44.32C172.325,55.736,152.483,35.285,127.63,34.909z M126.75,109.149h-56    c-11.974,1.237-22.683-7.466-23.92-19.44s7.466-22.683,19.44-23.92c4.331-0.873,7.135-5.091,6.262-9.423    c-0.067-0.331-0.154-0.658-0.262-0.977c-0.781-2.238-1.186-4.59-1.2-6.96c-0.068-12.018,9.618-21.815,21.636-21.884    c10.631-0.061,19.749,7.569,21.564,18.044c0.735,4.206,4.644,7.093,8.88,6.56c1.199-0.079,2.401-0.079,3.6,0    c16.016,0,29,12.984,29,29S142.766,109.149,126.75,109.149z"/><path d="M397.39,44.269c0.079-1.386,0.079-2.774,0-4.16c-0.081-20.854-17.052-37.694-37.906-37.614    c-15.414,0.06-29.222,9.486-34.92,23.785c-24.727,0.518-44.428,20.906-44.054,45.669c0.376,24.853,20.827,44.696,45.68,44.32h56    c20.851-0.39,37.438-17.608,37.048-38.459C418.968,63.372,410.487,50.352,397.39,44.269z M403.416,82.967    c-2.118,9.936-10.828,17.084-20.986,17.222h-56c-16.016,0-29-12.984-29-29s12.984-29,29-29c1.199-0.079,2.401-0.079,3.6,0    c4.048,0.42,7.766-2.265,8.64-6.24c2.005-11.849,13.236-19.829,25.086-17.824c11.849,2.005,19.829,13.236,17.824,25.086    c-0.204,1.203-0.508,2.387-0.91,3.539c-1.413,4.186,0.836,8.725,5.023,10.138c0.32,0.108,0.646,0.196,0.977,0.262    C398.424,59.654,405.921,71.213,403.416,82.967z"/></g><g transform="matrix(0.13657160103321075 0 0 0.13657160103321075 29.999999199775857 -25)" id="L1_3"><path d="M219.588,309.5c-25.493,0-46.16,20.667-46.16,46.16v60.24c0,4.418,3.582,8,8,8h76.24c4.418,0,8-3.582,8-8v-60.24    C265.668,330.198,245.051,309.544,219.588,309.5z M190.548,407.9c4.497-16.038,21.144-25.394,37.183-20.897    c10.135,2.842,18.055,10.762,20.897,20.897H190.548z M249.748,355.66v25.36c-17.275-15.011-42.965-15.011-60.24,0v-25.36    c-0.858-16.635,11.932-30.815,28.567-31.673c16.635-0.858,30.815,11.932,31.673,28.567    C249.802,353.589,249.802,354.626,249.748,355.66z"/><path d="M412.228,383.26c-0.226-0.451-0.494-0.879-0.8-1.28c-0.282-0.573-0.631-1.11-1.04-1.6l-4.48-3.92l-53.92-47.44    c-1.199-1.053-2.455-2.041-3.76-2.96c40-101.92-24-164-25.04-164.64c-3.232-3.012-8.295-2.834-11.307,0.399    c-2.213,2.375-2.772,5.852-1.413,8.801c7.966,15.548,4.706,34.49-8,46.48c-5.004,6.087-13.187,8.551-20.72,6.24    c-7.44-4-9.92-18.32-6.56-38.32c1.52-8.8,2.96-16.88,4.24-24.48c14.64-82.72,17.68-99.92-49.52-158.4    c-3.236-3.008-8.298-2.823-11.306,0.413c-2.294,2.468-2.796,6.11-1.254,9.107c0,0.64,35.52,66.08,0.96,105.76    c-9.68,11.12-14.4,10.8-15.28,10.64c-2.08-0.4-4.4-3.76-6.08-8.72c-4.8-14.32-2.64-35.2,1.36-40    c2.868-3.361,2.468-8.411-0.894-11.278c-1.96-1.672-4.605-2.298-7.106-1.682c-15.383,6.014-27.658,18.029-34,33.28    c-14.24,31.12-9.28,74.96,14.8,130.4c1.84,4.32,4.32,12.08,0,16c-6.367,3.963-14.433,3.963-20.8,0    c-6.48-3.04-27.52-16-24.72-54.24c0.305-4.408-3.021-8.228-7.429-8.533c-2.213-0.153-4.39,0.619-6.011,2.133    c-0.72,0.64-69.36,66.96-22.96,141.84l-1.12,0.88l-54.16,48l-4.48,3.92c-0.409,0.49-0.758,1.027-1.04,1.6    c-0.306,0.401-0.574,0.829-0.8,1.28c-0.184,1.147-0.37,2.294-0.56,3.44c0.136,0.751,0.378,1.478,0.72,2.16    c-0.026,0.373-0.026,0.747,0,1.12c0.614,1.058,1.462,1.961,2.48,2.64l67.6,45.12c2.175,1.454,4.923,1.753,7.36,0.8h0.48    c0.76-0.342,1.462-0.801,2.08-1.36l43.76-41.2c18.424-17.62,19.076-46.84,1.456-65.264c-8.731-9.13-20.823-14.282-33.456-14.256    c-5.75,0.015-11.447,1.1-16.8,3.2c-27.68-44.8-8-85.6,7.52-106.72c2.192,20.721,14.672,38.945,33.2,48.48    c12.315,7.044,27.692,5.805,38.72-3.12c3.84-3.76,11.84-14.56,3.36-34.08c-27.44-63.2-23.36-98.48-15.12-116.88    c2.064-4.566,4.756-8.821,8-12.64c-0.754,10.201,0.385,20.453,3.36,30.24c4.64,14,12.48,18.24,18.16,19.36    c9.36,1.84,19.68-3.44,30.48-16c24.4-28.32,21.2-64.56,13.92-90.72c34.16,34.64,30.96,53.04,19.04,120    c-1.36,7.6-2.8,16-4.24,24.56c-6.4,37.6,6.48,50.64,14.72,55.04c11.6,6.24,27.04,2.8,39.28-8.64    c8.597-8.374,14.216-19.332,16-31.2c13.2,24,25.36,65.52,3.84,121.12c-24.207-7.709-50.08,5.666-57.789,29.873    c-5.402,16.965-0.53,35.524,12.509,47.647l43.92,41.52c0.72,0.682,1.561,1.225,2.48,1.6c2.437,0.953,5.185,0.654,7.36-0.8    l67.6-45.12c1.018-0.679,1.866-1.582,2.48-2.64c0.028-0.373,0.028-0.747,0-1.12c0.342-0.682,0.584-1.409,0.72-2.16    c0.048-0.506,0.048-1.014,0-1.52C412.326,384.704,412.326,383.977,412.228,383.26z M100.948,420.86L100.948,420.86l-25.36-17.2    l-27.68-18.48c7.939-6.217,17.609-9.822,27.68-10.32c8.348,0.175,16.366,3.291,22.64,8.8c5.088,4.398,8.009,10.794,8,17.52    C106.625,408.137,104.774,415.036,100.948,420.86z M119.748,332.06v0.08c16.657,0,30.16,13.503,30.16,30.16    c0,8.254-3.383,16.148-9.36,21.84l-17.6,16.8c-0.236-11.355-5.406-22.044-14.16-29.28c-8.668-7.415-19.565-11.723-30.96-12.24    l21.2-18.64C104.544,335.298,111.973,332.172,119.748,332.06z M330.388,371.66c-8.724,7.251-13.864,17.938-14.08,29.28l-17.6-16.8    c-12.522-10.984-13.769-30.039-2.785-42.562c10.984-12.522,30.039-13.769,42.562-2.785c0.69,0.605,1.352,1.241,1.984,1.907    l20.96,18.4C349.966,359.69,339.035,364.113,330.388,371.66z M363.588,403.66l-25.28,16.88c-4.051-5.746-6.129-12.652-5.92-19.68    c-0.009-6.726,2.912-13.122,8-17.52c6.466-5.517,14.7-8.527,23.2-8.48c10.191,0.535,19.957,4.257,27.92,10.64L363.588,403.66z"/></g><path d="M459.608,273.673c-0.223-1.201-0.718-2.335-1.447-3.315c-1.04-1.12-77.6-103.92-126.24-185.36v0    c-1.647-2.777-4.803-4.292-8-3.84c-57.384,5.134-115.175,3.442-172.16-5.04h-0.96c-2.95-0.162-5.748,1.314-7.28,3.84    c-0.88,1.52-90.72,150.48-140.72,193.44c-3.358,2.871-3.753,7.921-0.881,11.279c1.502,1.757,3.69,2.778,6.001,2.801h19.36v61.52    c-0.021,4.124,3.097,7.588,7.2,8l267.44,26.64h0.8c4.18,0.013,7.666-3.193,8-7.36l126.48-35.44c3.562-0.996,5.977-4.304,5.84-8    v-48l10.16-1.84C457.545,282.192,460.414,278.017,459.608,273.673z M163.921,178.438c11.92,54.24,29.6,120,50.48,152l-50.64-4.64    L163.921,178.438z M173.201,145.478l0.16,0.08c27.36,50.64,70.4,122.32,114.24,164.24c1.747,1.675,4.159,2.47,6.56,2.16v26.24    l-56.96-5.6C214.721,320.038,189.361,225.958,173.201,145.478z M35.681,271.718l0.08,0.24h-8c40-42.56,93.36-124.88,117.2-163.2    c-8,43.92-34.16,169.44-70.16,208l-31.36-3.04v-34C43.443,275.392,40.006,271.848,35.681,271.718z M147.761,173.798v150.4    l-53.84-5.52C117.441,285.798,135.761,223.798,147.761,173.798z M294.641,366.758l-250.88-24.64v-12.32l33.68,3.28l40,3.92    l68,6.64l48.96,4.8l60.24,5.92V366.758z M426.961,327.318l-116.48,32.32v-50.56l116.64-21.36L426.961,327.318z M295.921,295.318    c-56-55.52-112-163.36-131.12-201.28c51.821,6.566,104.189,7.665,156.24,3.28c40,66.08,96,144,116.64,172L295.921,295.318z" transform="matrix(0.130507692694664 0 0 0.130507692694664 196 -20.999998598062064)" id="L1_4"/><g transform="matrix(0.13657160103321075 0 0 0.13657160103321075 193.99999946651724 147)" id="L1_8"><path d="M219.588,309.5c-25.493,0-46.16,20.667-46.16,46.16v60.24c0,4.418,3.582,8,8,8h76.24c4.418,0,8-3.582,8-8v-60.24    C265.668,330.198,245.051,309.544,219.588,309.5z M190.548,407.9c4.497-16.038,21.144-25.394,37.183-20.897    c10.135,2.842,18.055,10.762,20.897,20.897H190.548z M249.748,355.66v25.36c-17.275-15.011-42.965-15.011-60.24,0v-25.36    c-0.858-16.635,11.932-30.815,28.567-31.673c16.635-0.858,30.815,11.932,31.673,28.567    C249.802,353.589,249.802,354.626,249.748,355.66z"/><path d="M412.228,383.26c-0.226-0.451-0.494-0.879-0.8-1.28c-0.282-0.573-0.631-1.11-1.04-1.6l-4.48-3.92l-53.92-47.44    c-1.199-1.053-2.455-2.041-3.76-2.96c40-101.92-24-164-25.04-164.64c-3.232-3.012-8.295-2.834-11.307,0.399    c-2.213,2.375-2.772,5.852-1.413,8.801c7.966,15.548,4.706,34.49-8,46.48c-5.004,6.087-13.187,8.551-20.72,6.24    c-7.44-4-9.92-18.32-6.56-38.32c1.52-8.8,2.96-16.88,4.24-24.48c14.64-82.72,17.68-99.92-49.52-158.4    c-3.236-3.008-8.298-2.823-11.306,0.413c-2.294,2.468-2.796,6.11-1.254,9.107c0,0.64,35.52,66.08,0.96,105.76    c-9.68,11.12-14.4,10.8-15.28,10.64c-2.08-0.4-4.4-3.76-6.08-8.72c-4.8-14.32-2.64-35.2,1.36-40    c2.868-3.361,2.468-8.411-0.894-11.278c-1.96-1.672-4.605-2.298-7.106-1.682c-15.383,6.014-27.658,18.029-34,33.28    c-14.24,31.12-9.28,74.96,14.8,130.4c1.84,4.32,4.32,12.08,0,16c-6.367,3.963-14.433,3.963-20.8,0    c-6.48-3.04-27.52-16-24.72-54.24c0.305-4.408-3.021-8.228-7.429-8.533c-2.213-0.153-4.39,0.619-6.011,2.133    c-0.72,0.64-69.36,66.96-22.96,141.84l-1.12,0.88l-54.16,48l-4.48,3.92c-0.409,0.49-0.758,1.027-1.04,1.6    c-0.306,0.401-0.574,0.829-0.8,1.28c-0.184,1.147-0.37,2.294-0.56,3.44c0.136,0.751,0.378,1.478,0.72,2.16    c-0.026,0.373-0.026,0.747,0,1.12c0.614,1.058,1.462,1.961,2.48,2.64l67.6,45.12c2.175,1.454,4.923,1.753,7.36,0.8h0.48    c0.76-0.342,1.462-0.801,2.08-1.36l43.76-41.2c18.424-17.62,19.076-46.84,1.456-65.264c-8.731-9.13-20.823-14.282-33.456-14.256    c-5.75,0.015-11.447,1.1-16.8,3.2c-27.68-44.8-8-85.6,7.52-106.72c2.192,20.721,14.672,38.945,33.2,48.48    c12.315,7.044,27.692,5.805,38.72-3.12c3.84-3.76,11.84-14.56,3.36-34.08c-27.44-63.2-23.36-98.48-15.12-116.88    c2.064-4.566,4.756-8.821,8-12.64c-0.754,10.201,0.385,20.453,3.36,30.24c4.64,14,12.48,18.24,18.16,19.36    c9.36,1.84,19.68-3.44,30.48-16c24.4-28.32,21.2-64.56,13.92-90.72c34.16,34.64,30.96,53.04,19.04,120    c-1.36,7.6-2.8,16-4.24,24.56c-6.4,37.6,6.48,50.64,14.72,55.04c11.6,6.24,27.04,2.8,39.28-8.64    c8.597-8.374,14.216-19.332,16-31.2c13.2,24,25.36,65.52,3.84,121.12c-24.207-7.709-50.08,5.666-57.789,29.873    c-5.402,16.965-0.53,35.524,12.509,47.647l43.92,41.52c0.72,0.682,1.561,1.225,2.48,1.6c2.437,0.953,5.185,0.654,7.36-0.8    l67.6-45.12c1.018-0.679,1.866-1.582,2.48-2.64c0.028-0.373,0.028-0.747,0-1.12c0.342-0.682,0.584-1.409,0.72-2.16    c0.048-0.506,0.048-1.014,0-1.52C412.326,384.704,412.326,383.977,412.228,383.26z M100.948,420.86L100.948,420.86l-25.36-17.2    l-27.68-18.48c7.939-6.217,17.609-9.822,27.68-10.32c8.348,0.175,16.366,3.291,22.64,8.8c5.088,4.398,8.009,10.794,8,17.52    C106.625,408.137,104.774,415.036,100.948,420.86z M119.748,332.06v0.08c16.657,0,30.16,13.503,30.16,30.16    c0,8.254-3.383,16.148-9.36,21.84l-17.6,16.8c-0.236-11.355-5.406-22.044-14.16-29.28c-8.668-7.415-19.565-11.723-30.96-12.24    l21.2-18.64C104.544,335.298,111.973,332.172,119.748,332.06z M330.388,371.66c-8.724,7.251-13.864,17.938-14.08,29.28l-17.6-16.8    c-12.522-10.984-13.769-30.039-2.785-42.562c10.984-12.522,30.039-13.769,42.562-2.785c0.69,0.605,1.352,1.241,1.984,1.907    l20.96,18.4C349.966,359.69,339.035,364.113,330.388,371.66z M363.588,403.66l-25.28,16.88c-4.051-5.746-6.129-12.652-5.92-19.68    c-0.009-6.726,2.912-13.122,8-17.52c6.466-5.517,14.7-8.527,23.2-8.48c10.191,0.535,19.957,4.257,27.92,10.64L363.588,403.66z"/></g><path d="M459.608,273.673c-0.223-1.201-0.718-2.335-1.447-3.315c-1.04-1.12-77.6-103.92-126.24-185.36v0    c-1.647-2.777-4.803-4.292-8-3.84c-57.384,5.134-115.175,3.442-172.16-5.04h-0.96c-2.95-0.162-5.748,1.314-7.28,3.84    c-0.88,1.52-90.72,150.48-140.72,193.44c-3.358,2.871-3.753,7.921-0.881,11.279c1.502,1.757,3.69,2.778,6.001,2.801h19.36v61.52    c-0.021,4.124,3.097,7.588,7.2,8l267.44,26.64h0.8c4.18,0.013,7.666-3.193,8-7.36l126.48-35.44c3.562-0.996,5.977-4.304,5.84-8    v-48l10.16-1.84C457.545,282.192,460.414,278.017,459.608,273.673z M163.921,178.438c11.92,54.24,29.6,120,50.48,152l-50.64-4.64    L163.921,178.438z M173.201,145.478l0.16,0.08c27.36,50.64,70.4,122.32,114.24,164.24c1.747,1.675,4.159,2.47,6.56,2.16v26.24    l-56.96-5.6C214.721,320.038,189.361,225.958,173.201,145.478z M35.681,271.718l0.08,0.24h-8c40-42.56,93.36-124.88,117.2-163.2    c-8,43.92-34.16,169.44-70.16,208l-31.36-3.04v-34C43.443,275.392,40.006,271.848,35.681,271.718z M147.761,173.798v150.4    l-53.84-5.52C117.441,285.798,135.761,223.798,147.761,173.798z M294.641,366.758l-250.88-24.64v-12.32l33.68,3.28l40,3.92    l68,6.64l48.96,4.8l60.24,5.92V366.758z M426.961,327.318l-116.48,32.32v-50.56l116.64-21.36L426.961,327.318z M295.921,295.318    c-56-55.52-112-163.36-131.12-201.28c51.821,6.566,104.189,7.665,156.24,3.28c40,66.08,96,144,116.64,172L295.921,295.318z" transform="matrix(0.130507692694664 0 0 0.130507692694664 28 150.00000070096894)" id="L1_9"/><path d="M392.52,288.629l-78.32-89.6h37.84c4.418-0.011,7.991-3.601,7.981-8.019c-0.004-1.759-0.588-3.467-1.661-4.861    l-62.88-82.64h32c4.418-0.006,7.995-3.592,7.99-8.01c-0.002-1.94-0.71-3.813-1.99-5.27l-76.96-87.52    c-2.922-3.314-7.978-3.631-11.292-0.708c-0.251,0.221-0.487,0.458-0.708,0.708l-77.04,87.44c-2.96,3.28-2.701,8.339,0.578,11.299    c1.486,1.341,3.42,2.076,5.422,2.061h32.4l-19.36,25.28l-51.84-58.96c-2.922-3.314-7.978-3.631-11.292-0.708    c-0.251,0.221-0.487,0.458-0.708,0.708l-65.84,74.8c-2.916,3.319-2.589,8.374,0.73,11.29c1.457,1.28,3.33,1.987,5.27,1.99H88.2    l-52.64,68.88c-2.607,3.567-1.83,8.572,1.737,11.18c1.332,0.974,2.933,1.512,4.583,1.54h29.6l-65.04,74.8    c-2.872,3.357-2.479,8.407,0.879,11.28c1.428,1.222,3.242,1.902,5.121,1.92h88.48v56c0,8.571,6.949,15.52,15.52,15.52h24.4    c8.571,0.044,15.556-6.868,15.6-15.44c0-0.027,0-0.053,0-0.08v-56h66.4v56c0,8.571,6.949,15.52,15.52,15.52h24.4    c8.571,0,15.52-6.949,15.52-15.52v-81.6h108.24c4.418-0.006,7.995-3.592,7.99-8.01C394.507,291.959,393.8,290.086,392.52,288.629z     M140.44,383.029l-23.52,0.48l-0.48-56h24V383.029z M222.84,311.509H30.04l65.44-74.64c2.962-3.278,2.705-8.337-0.573-11.299    c-1.528-1.38-3.529-2.118-5.587-2.061h-31.2l52.64-68.88c2.695-3.501,2.042-8.524-1.459-11.219    c-1.394-1.073-3.102-1.657-4.861-1.661h-24l48-54.64l48,54.48l-33.76,44.64c-2.695,3.501-2.042,8.524,1.459,11.219    c1.394,1.073,3.102,1.657,4.861,1.661h37.92l-78.32,89.6c-2.916,3.319-2.589,8.374,0.73,11.29c1.457,1.28,3.33,1.987,5.27,1.99    h108.24V311.509z M262.28,382.869l-23.44,0.64l-0.48-81.6h24L262.28,382.869z M262.76,285.909H132.2l78.32-89.6    c2.916-3.319,2.589-8.374-0.73-11.29c-1.457-1.28-3.33-1.987-5.27-1.99h-39.28l63.2-82.72c2.651-3.534,1.935-8.549-1.599-11.2    c-1.363-1.022-3.017-1.583-4.721-1.6h-30.64l59.36-67.36l59.04,67.36H279c-4.418,0.011-7.991,3.601-7.981,8.019    c0.004,1.759,0.588,3.467,1.661,4.861l62.8,82.64h-38.96c-4.418,0.006-7.995,3.592-7.99,8.01c0.002,1.94,0.71,3.813,1.99,5.27    l78.32,89.6H262.76z" transform="matrix(0.15036500990390778 0 0 0.15036500990390778 288.9999970631834 241)" id="L1_10"/><g transform="matrix(0.14311474561691284 0 0 0.14311474561691284 111 238.0000001572306)" id="L1_11"><path d="M392.67,405.629l-67.76-157.6l-64-148.96c-1.732-4.065-6.431-5.956-10.495-4.225c-1.901,0.81-3.415,2.324-4.225,4.225    l-57.12,132.56l-22.4,52.08l-49.12-113.36c-1.732-4.065-6.431-5.956-10.495-4.225c-1.901,0.81-3.415,2.324-4.225,4.225    l-46.16,106.64l-56,128.56c-1.767,4.049,0.083,8.765,4.132,10.532c1.018,0.444,2.117,0.672,3.228,0.668h377.28    c4.418-0.004,7.997-3.588,7.993-8.007C393.303,407.673,393.087,406.614,392.67,405.629z M253.47,122.349l51.92,120.72h-18.24    l-32.96-36.4c-2.972-3.27-8.031-3.511-11.301-0.539c-0.513,0.466-0.963,0.997-1.339,1.579l-12.32,19.04h-20.64L253.47,122.349z     M110.19,193.389l41.04,94.88h-22.4c-2.72,0.005-5.251,1.391-6.72,3.68l-8,12.72l-20.64-29.12c-1.492-2.151-3.942-3.436-6.56-3.44    H76.27L110.19,193.389z M20.59,400.749l48.72-112.64h13.44l24.96,35.6c1.492,2.151,3.942,3.436,6.56,3.44    c2.663-0.058,5.122-1.438,6.56-3.68l12.32-19.04h24.96l41.68,96L20.59,400.749z M217.31,400.749l-41.92-96.8l26.32-61.2h32    c2.72-0.005,5.251-1.391,6.72-3.68l8.88-13.68l28.32,31.28c1.512,1.676,3.663,2.635,5.92,2.64h28.64l60.88,141.68L217.31,400.749z    "/><path d="M127.63,34.909c-7.547-19.441-29.426-29.082-48.866-21.534C64.289,18.994,54.73,32.902,54.67,48.429    c-0.079,1.386-0.079,2.774,0,4.16c-18.914,8.784-27.125,31.238-18.341,50.152c6.083,13.097,19.103,21.578,33.541,21.848l0.4,0.32    h56c24.853,0.376,45.304-19.467,45.68-44.32C172.325,55.736,152.483,35.285,127.63,34.909z M126.75,109.149h-56    c-11.974,1.237-22.683-7.466-23.92-19.44s7.466-22.683,19.44-23.92c4.331-0.873,7.135-5.091,6.262-9.423    c-0.067-0.331-0.154-0.658-0.262-0.977c-0.781-2.238-1.186-4.59-1.2-6.96c-0.068-12.018,9.618-21.815,21.636-21.884    c10.631-0.061,19.749,7.569,21.564,18.044c0.735,4.206,4.644,7.093,8.88,6.56c1.199-0.079,2.401-0.079,3.6,0    c16.016,0,29,12.984,29,29S142.766,109.149,126.75,109.149z"/><path d="M397.39,44.269c0.079-1.386,0.079-2.774,0-4.16c-0.081-20.854-17.052-37.694-37.906-37.614    c-15.414,0.06-29.222,9.486-34.92,23.785c-24.727,0.518-44.428,20.906-44.054,45.669c0.376,24.853,20.827,44.696,45.68,44.32h56    c20.851-0.39,37.438-17.608,37.048-38.459C418.968,63.372,410.487,50.352,397.39,44.269z M403.416,82.967    c-2.118,9.936-10.828,17.084-20.986,17.222h-56c-16.016,0-29-12.984-29-29s12.984-29,29-29c1.199-0.079,2.401-0.079,3.6,0    c4.048,0.42,7.766-2.265,8.64-6.24c2.005-11.849,13.236-19.829,25.086-17.824c11.849,2.005,19.829,13.236,17.824,25.086    c-0.204,1.203-0.508,2.387-0.91,3.539c-1.413,4.186,0.836,8.725,5.023,10.138c0.32,0.108,0.646,0.196,0.977,0.262    C398.424,59.654,405.921,71.213,403.416,82.967z"/></g></defs><g fi:class="KUsePattern"><pattern id="pattern_L1_1" width="350" height="350" patternUnits="userSpaceOnUse"><use xlink:href="#L1_1" x="-350" y="-350"/><use xlink:href="#L1_1" x="0" y="-350"/><use xlink:href="#L1_1" x="350" y="-350"/><use xlink:href="#L1_1" x="-350" y="0"/><use xlink:href="#L1_1" x="0" y="0"/><use xlink:href="#L1_1" x="350" y="0"/><use xlink:href="#L1_1" x="-350" y="350"/><use xlink:href="#L1_1" x="0" y="350"/><use xlink:href="#L1_1" x="350" y="350"/></pattern><rect x="0" y="0" width="100%" height="100%" fill="url(#pattern_L1_1)"/></g><g fi:class="KUsePattern"><pattern id="pattern_L1_2" width="350" height="350" patternUnits="userSpaceOnUse"><use xlink:href="#L1_2" x="-350" y="-350"/><use xlink:href="#L1_2" x="0" y="-350"/><use xlink:href="#L1_2" x="350" y="-350"/><use xlink:href="#L1_2" x="-350" y="0"/><use xlink:href="#L1_2" x="0" y="0"/><use xlink:href="#L1_2" x="350" y="0"/><use xlink:href="#L1_2" x="-350" y="350"/><use xlink:href="#L1_2" x="0" y="350"/><use xlink:href="#L1_2" x="350" y="350"/></pattern><rect x="0" y="0" width="100%" height="100%" fill="url(#pattern_L1_2)"/></g><g fi:class="KUsePattern"><pattern id="pattern_L1_3" width="350" height="350" patternUnits="userSpaceOnUse"><use xlink:href="#L1_3" x="-350" y="-350"/><use xlink:href="#L1_3" x="0" y="-350"/><use xlink:href="#L1_3" x="350" y="-350"/><use xlink:href="#L1_3" x="-350" y="0"/><use xlink:href="#L1_3" x="0" y="0"/><use xlink:href="#L1_3" x="350" y="0"/><use xlink:href="#L1_3" x="-350" y="350"/><use xlink:href="#L1_3" x="0" y="350"/><use xlink:href="#L1_3" x="350" y="350"/></pattern><rect x="0" y="0" width="100%" height="100%" fill="url(#pattern_L1_3)"/></g><g fi:class="KUsePattern"><pattern id="pattern_L1_4" width="350" height="350" patternUnits="userSpaceOnUse"><use xlink:href="#L1_4" x="-350" y="-350"/><use xlink:href="#L1_4" x="0" y="-350"/><use xlink:href="#L1_4" x="350" y="-350"/><use xlink:href="#L1_4" x="-350" y="0"/><use xlink:href="#L1_4" x="0" y="0"/><use xlink:href="#L1_4" x="350" y="0"/><use xlink:href="#L1_4" x="-350" y="350"/><use xlink:href="#L1_4" x="0" y="350"/><use xlink:href="#L1_4" x="350" y="350"/></pattern><rect x="0" y="0" width="100%" height="100%" fill="url(#pattern_L1_4)"/></g><g fi:class="KUsePattern"><pattern id="pattern_L1_8" width="350" height="350" patternUnits="userSpaceOnUse"><use xlink:href="#L1_8" x="-350" y="-350"/><use xlink:href="#L1_8" x="0" y="-350"/><use xlink:href="#L1_8" x="350" y="-350"/><use xlink:href="#L1_8" x="-350" y="0"/><use xlink:href="#L1_8" x="0" y="0"/><use xlink:href="#L1_8" x="350" y="0"/><use xlink:href="#L1_8" x="-350" y="350"/><use xlink:href="#L1_8" x="0" y="350"/><use xlink:href="#L1_8" x="350" y="350"/></pattern><rect x="0" y="0" width="100%" height="100%" fill="url(#pattern_L1_8)"/></g><g fi:class="KUsePattern"><pattern id="pattern_L1_9" width="350" height="350" patternUnits="userSpaceOnUse"><use xlink:href="#L1_9" x="-350" y="-350"/><use xlink:href="#L1_9" x="0" y="-350"/><use xlink:href="#L1_9" x="350" y="-350"/><use xlink:href="#L1_9" x="-350" y="0"/><use xlink:href="#L1_9" x="0" y="0"/><use xlink:href="#L1_9" x="350" y="0"/><use xlink:href="#L1_9" x="-350" y="350"/><use xlink:href="#L1_9" x="0" y="350"/><use xlink:href="#L1_9" x="350" y="350"/></pattern><rect x="0" y="0" width="100%" height="100%" fill="url(#pattern_L1_9)"/></g><g fi:class="KUsePattern"><pattern id="pattern_L1_10" width="350" height="350" patternUnits="userSpaceOnUse"><use xlink:href="#L1_10" x="-350" y="-350"/><use xlink:href="#L1_10" x="0" y="-350"/><use xlink:href="#L1_10" x="350" y="-350"/><use xlink:href="#L1_10" x="-350" y="0"/><use xlink:href="#L1_10" x="0" y="0"/><use xlink:href="#L1_10" x="350" y="0"/><use xlink:href="#L1_10" x="-350" y="350"/><use xlink:href="#L1_10" x="0" y="350"/><use xlink:href="#L1_10" x="350" y="350"/></pattern><rect x="0" y="0" width="100%" height="100%" fill="url(#pattern_L1_10)"/></g><g fi:class="KUsePattern"><pattern id="pattern_L1_11" width="350" height="350" patternUnits="userSpaceOnUse"><use xlink:href="#L1_11" x="-350" y="-350"/><use xlink:href="#L1_11" x="0" y="-350"/><use xlink:href="#L1_11" x="350" y="-350"/><use xlink:href="#L1_11" x="-350" y="0"/><use xlink:href="#L1_11" x="0" y="0"/><use xlink:href="#L1_11" x="350" y="0"/><use xlink:href="#L1_11" x="-350" y="350"/><use xlink:href="#L1_11" x="0" y="350"/><use xlink:href="#L1_11" x="350" y="350"/></pattern><rect x="0" y="0" width="100%" height="100%" fill="url(#pattern_L1_11)"/></g></svg>
