<svg xmlns="http://www.w3.org/2000/svg" viewBox="0 0 300 300">
  <pattern width="100" height="100" patternUnits="userSpaceOnUse" id="a" viewBox="8 -106 100 100" overflow="visible">
    <path fill="none" d="M8-106h100V-6H8z"/>
    <path d="M120.1-1.7c-2.2 2.2-5.8 2.2-8 0s-2.2-5.8 0-8 5.8-2.2 8 0 2.2 5.8 0 8zm-20.1-12h32.2l-8-8H108l-8 8zm32.2-32.2l-16.1 16.1 5.6 5.6 16.1-16.1-5.6-5.6zm13.7 18.5l-14.5-3.2 3.2 14.5 11.3-11.3zM20.1-1.7c-2.2 2.2-5.8 2.2-8 0s-2.2-5.8 0-8 5.8-2.2 8 0 2.2 5.8 0 8zM0-13.7h32.2l-8-8H8l-8 8zm32.2-32.2L16.1-29.8l5.6 5.6 16.1-16.1-5.6-5.6zm13.7 18.5l-14.5-3.2 3.2 14.5 11.3-11.3zM49.8-79.5c-2.9-2.9-2.9-7.7 0-10.6s7.7-2.9 10.6 0c2.9 2.9 2.9 7.7 0 10.6-2.9 2.9-7.7 2.9-10.6 0zm15.9-26.4v42.3l10.6-10.6v-21.2l-10.6-10.5zM108-63.6L86.8-84.8l-7.4 7.4 21.2 21.2 7.4-7.4zm-24.3 18l4.2-19-19 4.2 14.8 14.8zM120.1-101.7c-2.2 2.2-5.8 2.2-8 0s-2.2-5.8 0-8 5.8-2.2 8 0 2.2 5.8 0 8zm-20.1-12h32.2l-8-8H108l-8 8zm32.2-32.2l-16.1 16.1 5.6 5.6 16.1-16.1-5.6-5.6zm13.7 18.5l-14.5-3.2 3.2 14.5 11.3-11.3z"/>
    <g>
      <path d="M20.1-101.7c-2.2 2.2-5.8 2.2-8 0s-2.2-5.8 0-8 5.8-2.2 8 0 2.2 5.8 0 8zM0-113.7h32.2l-8-8H8l-8 8zm32.2-32.2l-16.1 16.1 5.6 5.6 16.1-16.1-5.6-5.6zm13.7 18.5l-14.5-3.2 3.2 14.5 11.3-11.3z"/>
    </g>
  </pattern>
  <path fill="url(#a)" d="M0 0h300v300H0z"/>
</svg>
