<svg id="bf46367d-aa25-4ae6-b853-0e7962a800a1" data-name="Layer 1" xmlns="http://www.w3.org/2000/svg" viewBox="0 0 500 500">
  <defs/>
  <path class="ec0e8d6e-7ac3-4b02-8da2-559e29c27789" d="M212.54 352.46l-38.79 38.79 15.49 57.81 38.8-38.81 86.69 23.26 23.26 86.69-63.43 63.42-86.69-23.25-38.78-144.46-42.27 42.27 38.77 144.47 144.47 38.76L395.78 535.7l-38.76-144.48-144.48-38.76z"/>
  <path class="ec0e8d6e-7ac3-4b02-8da2-559e29c27789" d="M304.28 511.15l-14.22-52.97-52.97-14.22-38.76 38.77 14.21 52.97 52.97 14.21 38.77-38.76zM212.54-144.99l-38.79 38.79 15.49 57.81 38.8-38.81 86.69 23.26 23.26 86.68-63.43 63.43-86.69-23.26-38.78-144.45-42.27 42.26 38.77 144.48 144.47 38.76L395.78 38.25l-38.76-144.48-144.48-38.76z"/>
  <path class="ec0e8d6e-7ac3-4b02-8da2-559e29c27789" d="M304.28 13.7l-14.22-52.98-52.97-14.21-38.76 38.76 14.21 52.98 52.97 14.21 38.77-38.76zM99.16 222.87l-27.2-27.21-40.53 10.87 27.21 27.21-16.31 60.78-60.79 16.31-44.47-44.48 16.31-60.78 101.29-27.2-29.64-29.63-101.31 27.18-27.18 101.31 74.13 74.12 101.31-27.18 27.18-101.3z"/>
  <path class="ec0e8d6e-7ac3-4b02-8da2-559e29c27789" d="M-12.11 287.19l37.14-9.96L35 240.08 7.82 212.9l-37.15 9.97-9.96 37.14 27.18 27.18zM599.16 222.87l-27.2-27.21-40.54 10.87 27.22 27.21-16.31 60.78-60.79 16.31-44.47-44.48 16.31-60.78 101.29-27.2-29.64-29.63-101.3 27.18-27.19 101.31 74.13 74.12 101.31-27.18 27.18-101.3z"/>
  <path class="ec0e8d6e-7ac3-4b02-8da2-559e29c27789" d="M487.89 287.19l37.14-9.96 9.97-37.15-27.18-27.18-37.15 9.97-9.96 37.14 27.18 27.18z"/>
</svg>
