<svg id="e07be6fc-6e94-438b-9158-1244448ef248" data-name="Layer 1" xmlns="http://www.w3.org/2000/svg" viewBox="0 0 500 500">
  <defs/>
  <path class="a531e2fd-8ce8-43b1-b143-2a774582a2d0" d="M205.22 28.59a53.67 53.67 0 016.84-67.53 53.68 53.68 0 0167.53-6.84l59.2-59.2a3.58 3.58 0 00-1.61-6l-109.71-29.4a28.64 28.64 0 00-27.65 7.38L118-51.18a28.6 28.6 0 00-7.4 27.64L140 86.18a3.58 3.58 0 006 1.61zM294.77-30.6a53.7 53.7 0 010 59.19l53.88 53.88L382 49.19a28.64 28.64 0 007.41-27.65L360-88.2a3.57 3.57 0 00-6-1.6zM279.6 43.77a53.72 53.72 0 01-59.2 0L161.2 103a3.57 3.57 0 001.6 6l109.72 29.4a28.6 28.6 0 0027.64-7.4l33.31-33.3-53.87-53.93zM205.22 527.59a53.68 53.68 0 0174.37-74.37l59.2-59.2a3.58 3.58 0 00-1.61-6l-109.71-29.4a28.64 28.64 0 00-27.65 7.38L118 447.82a28.6 28.6 0 00-7.4 27.64L140 585.18a3.58 3.58 0 006 1.61zM294.77 468.4a53.7 53.7 0 010 59.19l53.88 53.88L382 548.19a28.64 28.64 0 007.41-27.65L360 410.8a3.57 3.57 0 00-6-1.6zM21.82 284.88a42.07 42.07 0 01-52.92-5.36 42.06 42.06 0 01-5.36-52.92l-46.4-46.4a2.81 2.81 0 00-4.69 1.26l-23 86a22.42 22.42 0 005.8 21.67l64.09 64.09A22.44 22.44 0 00-19 359l86-23a2.8 2.8 0 001.26-4.69zM-24.57 214.7a42.09 42.09 0 0146.39 0l42.23-42.23L38 146.38a22.42 22.42 0 00-21.66-5.81l-86 23.05a2.8 2.8 0 00-1.34 4.69zM33.72 226.59a42.09 42.09 0 010 46.39l46.4 46.4a2.81 2.81 0 004.69-1.26l23-86a22.46 22.46 0 00-5.8-21.67l-26.1-26.1-42.19 42.24zM521.82 284.88a42.06 42.06 0 01-58.28-58.28l-46.4-46.4a2.81 2.81 0 00-4.69 1.26l-23 86a22.42 22.42 0 005.8 21.67l64.09 64.09A22.44 22.44 0 00481 359l86-23a2.8 2.8 0 001.26-4.69zM475.43 214.7a42.09 42.09 0 0146.39 0l42.23-42.23L538 146.38a22.42 22.42 0 00-21.66-5.81l-86 23.05a2.8 2.8 0 00-1.26 4.69z"/>
</svg>
