<svg id="eb634480-8dfc-419c-85e9-8c8fe0e03150" data-name="Layer 1" xmlns="http://www.w3.org/2000/svg" viewBox="0 0 500 500">
  <defs/>
  <path class="b521045f-6a92-4bfc-a8c9-71dd8849e3c1" d="M-1.1 355.13a30.29 30.29 0 01-42.7 0 30.27 30.27 0 010-42.69 30.29 30.29 0 0142.7 0 30.27 30.27 0 010 42.69zm-106.73-64H62.93l-42.69-42.72h-85.38zm170.76-170.8l-85.38 85.39L7.43 235.6l85.38-85.38zm72.57 98.19l-76.84-17.07 17.08 76.84zM114-6.75a39.78 39.78 0 010-56.1 39.79 39.79 0 0156.11 0 39.78 39.78 0 010 56.1 39.79 39.79 0 01-56.11 0zM198.17-147V77.42l56.1-56.11V-90.91zM422.6 77.42L310.38-34.8 271.11 4.48l112.21 112.21zm-129 95.38L316 71.81 215 94.25zM114 491.25a39.67 39.67 0 1156.11 0 39.78 39.78 0 01-56.11 0zM198.17 351v224.42l56.1-56.11V407.09zM422.6 575.42L310.38 463.2l-39.27 39.28 112.21 112.21zm-129 95.38l22.44-101L215 592.25zM498.9 355.13a30.19 30.19 0 110-42.69 30.29 30.29 0 010 42.69zm-106.73-64h170.76l-42.69-42.69h-85.38zm170.76-170.8l-85.38 85.39 29.88 29.88 85.38-85.38zm72.57 98.19l-76.84-17.07 17.08 76.84z"/>
</svg>
