<svg id="ad17c086-5a35-4795-a3f5-11042d5563bf" data-name="Layer 1" xmlns="http://www.w3.org/2000/svg" viewBox="0 0 500 500">
  <defs/>
  <path class="b80ccf29-0e77-430b-9394-24898dc81ffa" d="M258.4-92.35l-8.4-42L115.67 0l84 84 25.18-25.18L166.05 0z"/>
  <path class="b80ccf29-0e77-430b-9394-24898dc81ffa" d="M250 134.33L384.33 0l-112-22.37-5.51-28-25.22 25.18 5.51 28 70.05 14-92.35 92.35zM258.4 407.65l-8.4-42L115.67 500l84 84 25.18-25.18-58.8-58.82z"/>
  <path class="b80ccf29-0e77-430b-9394-24898dc81ffa" d="M250 634.33L384.33 500l-112-22.37-5.51-28-25.22 25.18 5.51 28 70.05 14-92.35 92.35zM-75.19 243.16l-34.17 6.84L0 359.36 68.35 291l-20.5-20.5L0 318.35z"/>
  <path class="b80ccf29-0e77-430b-9394-24898dc81ffa" d="M109.36 250L0 140.64l-18.21 91.2-22.79 4.49 20.5 20.51 22.8-4.49 11.37-57 75.19 75.19zM424.81 243.16L390.64 250 500 359.36 568.35 291l-20.5-20.5L500 318.35z"/>
  <path class="b80ccf29-0e77-430b-9394-24898dc81ffa" d="M609.36 250L500 140.64l-18.21 91.2-22.79 4.49 20.5 20.51 22.81-4.49 11.37-57 75.19 75.19z"/>
</svg>
